<svg xmlns="http://www.w3.org/2000/svg" xmlns:xlink="http://www.w3.org/1999/xlink" width="1080" zoomAndPan="magnify" viewBox="0 0 810 809.999993" height="1080" preserveAspectRatio="xMidYMid meet" version="1.0"><defs><clipPath id="c39255cc11"><path d="M 12.546875 91.039062 L 797.796875 91.039062 L 797.796875 718.789062 L 12.546875 718.789062 Z M 12.546875 91.039062 " clip-rule="nonzero"/></clipPath></defs><rect x="-81" width="972" fill="#ffffff" y="-80.999999" height="971.999992" fill-opacity="1"/><rect x="-81" width="972" fill="#ffffff" y="-80.999999" height="971.999992" fill-opacity="1"/><g clip-path="url(#c39255cc11)"><path fill="#3b82f6" d="M 719.269531 91.039062 L 91.074219 91.039062 C 47.707031 91.039062 12.550781 126.167969 12.550781 169.507812 L 12.550781 640.320312 C 12.550781 683.65625 47.707031 718.789062 91.074219 718.789062 L 719.269531 718.789062 C 762.636719 718.789062 797.792969 683.65625 797.792969 640.320312 L 797.792969 169.507812 C 797.792969 126.167969 762.636719 91.039062 719.269531 91.039062 Z M 208.859375 208.742188 C 252.230469 208.742188 287.386719 243.871094 287.386719 287.210938 C 287.386719 330.546875 252.230469 365.679688 208.859375 365.679688 C 165.492188 365.679688 130.335938 330.546875 130.335938 287.210938 C 130.335938 243.871094 165.492188 208.742188 208.859375 208.742188 Z M 719.269531 640.320312 L 91.074219 640.320312 L 91.074219 617.257812 L 259.78125 483.53125 C 275.359375 471.179688 298.589844 472.003906 313.09375 485.425781 L 385.539062 552.441406 L 613.167969 374.273438 C 628.753906 362.074219 651.851562 362.964844 666.289062 376.320312 L 719.269531 425.320312 L 719.269531 640.328125 Z M 719.269531 640.320312 " fill-opacity="0.3" fill-rule="nonzero"/></g><path fill="#3b82f6" d="M 91.074219 617.257812 L 259.78125 483.53125 C 275.359375 471.179688 298.589844 472.003906 313.09375 485.425781 L 385.539062 552.441406 L 613.167969 374.273438 C 628.753906 362.074219 651.851562 362.964844 666.289062 376.320312 L 719.269531 425.320312 L 719.269531 640.328125 L 91.074219 640.328125 Z M 287.386719 287.210938 C 287.386719 243.871094 252.230469 208.742188 208.859375 208.742188 C 165.492188 208.742188 130.335938 243.871094 130.335938 287.210938 C 130.335938 330.546875 165.492188 365.679688 208.859375 365.679688 C 252.230469 365.679688 287.386719 330.546875 287.386719 287.210938 Z M 287.386719 287.210938 " fill-opacity="1" fill-rule="nonzero"/></svg>